<svg xmlns="http://www.w3.org/2000/svg" viewBox="0 0 975.87 803.09"><defs><style>.a{fill:#ff8547;}.a,.b{stroke:#1e1e1e;stroke-miterlimit:10;stroke-width:16px;}.b{fill:none;}</style></defs><title>clackerclicker-key</title><path class="a" d="M932.68,361.64l46.7,243a30.32,30.32,0,0,1-14.61,32L537.16,883.55a74.61,74.61,0,0,1-74.66,0L35.21,636.45a30.32,30.32,0,0,1-14.6-31.93l46.84-245.3c2.49-11.22,6.94-14.6,15.68-19.89,0,0,145.88-68.79,213.36-110.06S471.26,114.52,471.26,114.52a60.17,60.17,0,0,1,60.34.1L916.15,338.33A34.5,34.5,0,0,1,932.68,361.64Z" transform="translate(-12.07 -98.45)"/><path class="b" d="M71.09,347.32L469.86,577.55a60.25,60.25,0,0,0,60.27,0s44.83-18.34,184.15-96,214.3-134.27,214.3-134.27" transform="translate(-12.07 -98.45)"/></svg>